<svg width="840" height="134" viewBox="0 0 840 134" fill="none" xmlns="http://www.w3.org/2000/svg">
<g filter="url(#filter0_d_1_50)">
<path d="M0.784 92.528C0.784 90.864 0.805334 88.1973 0.848001 84.528C0.890667 80.8587 0.954667 76.6133 1.04 71.792C1.168 66.928 1.296 61.808 1.424 56.432C1.552 51.056 1.65867 45.7867 1.744 40.624C1.872 35.4613 1.97867 30.7467 2.064 26.48C2.192 22.2133 2.27733 18.7573 2.32 16.112C2.36267 13.4667 2.384 12.016 2.384 11.76C4.77333 11.5893 7.58933 11.3973 10.832 11.184C14.1173 10.9707 17.552 10.8 21.136 10.672C24.7627 10.5013 28.2827 10.416 31.696 10.416C36.688 10.416 41.104 11.056 44.944 12.336C48.8267 13.616 51.8773 15.6853 54.096 18.544C56.3147 21.4027 57.424 25.1573 57.424 29.808C57.424 33.2213 56.6347 36.208 55.056 38.768C53.4773 41.328 51.5573 43.3973 49.296 44.976C47.0347 46.5547 44.8587 47.5573 42.768 47.984C42.9813 47.984 43.1947 47.984 43.408 47.984C43.664 47.984 43.984 47.984 44.368 47.984C48.1653 48.24 51.4933 49.1787 54.352 50.8C57.2533 52.3787 59.5147 54.512 61.136 57.2C62.7573 59.888 63.568 62.9813 63.568 66.48C63.568 72.1973 62.4587 76.848 60.24 80.432C58.0213 83.9733 54.864 86.7253 50.768 88.688C46.672 90.6507 41.7867 91.9947 36.112 92.72C30.48 93.4453 24.272 93.808 17.488 93.808C14.288 93.808 11.216 93.7013 8.272 93.488C5.328 93.2747 2.832 92.9547 0.784 92.528ZM21.84 74.8C22.224 74.8427 22.6933 74.864 23.248 74.864C23.8027 74.864 24.4213 74.864 25.104 74.864C27.408 74.864 29.712 74.7147 32.016 74.416C34.32 74.1173 36.4107 73.6267 38.288 72.944C40.208 72.2613 41.744 71.3227 42.896 70.128C44.048 68.8907 44.624 67.3547 44.624 65.52C44.624 64.24 44.3467 63.1093 43.792 62.128C43.28 61.1467 42.4693 60.336 41.36 59.696C40.2507 59.0133 38.8 58.5227 37.008 58.224C35.2587 57.8827 33.1467 57.712 30.672 57.712C29.9467 57.712 29.0507 57.7333 27.984 57.776C26.9173 57.776 25.808 57.8187 24.656 57.904C23.5467 57.9467 22.5013 58.032 21.52 58.16L21.84 74.8ZM21.264 41.968C23.5253 41.968 25.3387 41.904 26.704 41.776C28.0693 41.648 29.264 41.4133 30.288 41.072C32.7627 40.688 35.024 39.792 37.072 38.384C39.1627 36.9333 40.208 34.992 40.208 32.56C40.208 30.0427 39.3333 28.1653 37.584 26.928C35.8347 25.648 33.5947 25.008 30.864 25.008C29.2853 25.008 27.5573 25.1147 25.68 25.328C23.8453 25.4987 22.2453 25.6907 20.88 25.904L21.264 41.968ZM107.525 95.408C96.2183 95.408 87.7063 92.4213 81.989 86.448C76.2717 80.432 73.413 71.7067 73.413 60.272C73.413 52.6347 74.885 46.2987 77.829 41.264C80.773 36.1867 84.8477 32.368 90.053 29.808C95.301 27.248 101.36 25.968 108.229 25.968C115.226 25.968 121.029 27.568 125.637 30.768C130.288 33.968 133.765 38.384 136.069 44.016C138.373 49.648 139.525 56.1547 139.525 63.536C139.525 69.9787 138.288 75.5893 135.813 80.368C133.338 85.1467 129.712 88.8587 124.933 91.504C120.197 94.1067 114.394 95.408 107.525 95.408ZM106.821 77.04C109.168 77.04 111.237 76.6347 113.029 75.824C114.864 75.0133 116.4 73.8613 117.637 72.368C118.917 70.832 119.877 69.04 120.517 66.992C121.157 64.944 121.477 62.704 121.477 60.272C121.477 56.4747 120.922 53.1253 119.813 50.224C118.746 47.28 117.146 44.9973 115.013 43.376C112.922 41.712 110.32 40.88 107.205 40.88C103.834 40.88 101.082 41.7333 98.949 43.44C96.8157 45.1467 95.237 47.3867 94.213 50.16C93.2317 52.8907 92.741 55.8133 92.741 58.928C92.741 64.176 93.9357 68.5067 96.325 71.92C98.757 75.3333 102.256 77.04 106.821 77.04ZM182.525 95.408C171.218 95.408 162.706 92.4213 156.989 86.448C151.272 80.432 148.413 71.7067 148.413 60.272C148.413 52.6347 149.885 46.2987 152.829 41.264C155.773 36.1867 159.848 32.368 165.053 29.808C170.301 27.248 176.36 25.968 183.229 25.968C190.226 25.968 196.029 27.568 200.637 30.768C205.288 33.968 208.765 38.384 211.069 44.016C213.373 49.648 214.525 56.1547 214.525 63.536C214.525 69.9787 213.288 75.5893 210.813 80.368C208.338 85.1467 204.712 88.8587 199.933 91.504C195.197 94.1067 189.394 95.408 182.525 95.408ZM181.821 77.04C184.168 77.04 186.237 76.6347 188.029 75.824C189.864 75.0133 191.4 73.8613 192.637 72.368C193.917 70.832 194.877 69.04 195.517 66.992C196.157 64.944 196.477 62.704 196.477 60.272C196.477 56.4747 195.922 53.1253 194.813 50.224C193.746 47.28 192.146 44.9973 190.013 43.376C187.922 41.712 185.32 40.88 182.205 40.88C178.834 40.88 176.082 41.7333 173.949 43.44C171.816 45.1467 170.237 47.3867 169.213 50.16C168.232 52.8907 167.741 55.8133 167.741 58.928C167.741 64.176 168.936 68.5067 171.325 71.92C173.757 75.3333 177.256 77.04 181.821 77.04ZM269.376 97.328C268.779 96.048 267.84 94.4053 266.56 92.4C265.323 90.352 263.893 88.1973 262.272 85.936C260.693 83.632 259.029 81.392 257.28 79.216C255.573 77.04 253.931 75.1413 252.352 73.52C250.773 71.856 249.408 70.6827 248.256 70C247.659 70.384 246.912 70.9387 246.016 71.664C245.12 72.3467 244.288 73.008 243.52 73.648C242.752 74.288 242.219 74.7573 241.92 75.056C241.877 76.8907 241.813 78.8107 241.728 80.816C241.643 82.8213 241.557 84.784 241.472 86.704C241.387 88.5813 241.28 90.3093 241.152 91.888C241.067 93.424 240.981 94.64 240.896 95.536C239.317 95.7067 237.739 95.8347 236.16 95.92C234.581 96.0053 233.003 96.048 231.424 96.048C229.376 96.048 227.435 95.9627 225.6 95.792C223.765 95.664 222.165 95.536 220.8 95.408C220.843 94.384 220.949 92.144 221.12 88.688C221.333 85.1893 221.547 80.9013 221.76 75.824C222.016 70.704 222.272 65.1573 222.528 59.184C222.827 53.168 223.104 47.1307 223.36 41.072C223.659 34.9707 223.915 29.232 224.128 23.856C224.384 18.4373 224.576 13.7653 224.704 9.84C224.832 5.87199 224.896 3.05599 224.896 1.392C226.261 1.264 227.669 1.15733 229.12 1.072C230.571 0.986661 232 0.943993 233.408 0.943993C235.413 0.943993 237.355 1.05066 239.232 1.26399C241.152 1.47733 242.923 1.81866 244.544 2.28799C244.544 5.616 244.501 9.264 244.416 13.232C244.373 17.2 244.267 21.232 244.096 25.328C243.968 29.424 243.819 33.328 243.648 37.04C243.477 40.752 243.307 44.0587 243.136 46.96C243.008 49.8187 242.88 51.9947 242.752 53.488C244.928 51.2267 247.467 48.9227 250.368 46.576C253.269 44.2293 256.277 41.968 259.392 39.792C262.507 37.5733 265.515 35.504 268.416 33.584C271.36 31.6213 273.92 29.9147 276.096 28.464C276.779 29.104 277.632 30.064 278.656 31.344C279.68 32.5813 280.725 33.968 281.792 35.504C282.901 36.9973 283.925 38.448 284.864 39.856C285.803 41.264 286.549 42.4373 287.104 43.376C285.397 44.4427 283.392 45.7227 281.088 47.216C278.784 48.6667 276.416 50.1813 273.984 51.76C271.595 53.3387 269.376 54.832 267.328 56.24C265.28 57.648 263.68 58.7787 262.528 59.632C263.637 60.3573 264.981 61.4667 266.56 62.96C268.139 64.4533 269.845 66.2027 271.68 68.208C273.557 70.2133 275.456 72.4107 277.376 74.8C279.296 77.1467 281.195 79.6213 283.072 82.224C284.949 84.784 286.656 87.3653 288.192 89.968C287.552 90.352 286.4 90.9067 284.736 91.632C283.072 92.3147 281.216 93.0613 279.168 93.872C277.12 94.6827 275.2 95.408 273.408 96.048C271.616 96.688 270.272 97.1147 269.376 97.328ZM317.456 93.872C316.731 93.9147 315.344 94 313.296 94.128C311.291 94.2987 309.157 94.384 306.896 94.384C305.232 94.384 303.547 94.32 301.84 94.192C300.176 94.1067 298.533 93.9787 296.912 93.808C297.125 92.6987 297.36 90.4373 297.616 87.024C297.915 83.568 298.192 79.5147 298.448 74.864C298.747 70.2133 299.024 65.4133 299.28 60.464C299.579 55.472 299.792 50.8 299.92 46.448C300.091 42.096 300.176 38.5973 300.176 35.952C301.029 35.9093 302.288 35.8453 303.952 35.76C305.616 35.6747 307.408 35.6107 309.328 35.568C311.248 35.4827 313.083 35.4187 314.832 35.376C316.581 35.2907 317.968 35.248 318.992 35.248C319.205 36.5707 319.376 38.704 319.504 41.648C319.632 44.592 319.696 47.8773 319.696 51.504C319.696 55.3867 319.632 59.504 319.504 63.856C319.419 68.208 319.269 72.432 319.056 76.528C318.885 80.5813 318.651 84.1653 318.352 87.28C318.053 90.352 317.755 92.5493 317.456 93.872ZM310.288 26.992C306.448 26.992 303.227 25.8827 300.624 23.664C298.021 21.4027 296.72 18.4373 296.72 14.768C296.72 12.2507 297.339 10.096 298.576 8.30399C299.813 6.512 301.413 5.14666 303.376 4.20799C305.381 3.22666 307.493 2.73599 309.712 2.73599C313.253 2.73599 316.176 3.88799 318.48 6.19199C320.827 8.49599 322 11.4613 322 15.088C322 18.4587 320.891 21.296 318.672 23.6C316.453 25.8613 313.659 26.992 310.288 26.992ZM356.548 94.832C355.268 94.8747 353.689 94.8747 351.812 94.832C349.935 94.832 348.015 94.8107 346.052 94.768C344.473 94.7253 342.66 94.6613 340.612 94.576C338.564 94.4907 337.135 94.4053 336.324 94.32C336.708 90.736 337.028 86.6827 337.284 82.16C337.583 77.6373 337.817 72.624 337.988 67.12C338.159 61.616 338.287 55.6 338.372 49.072C338.457 42.544 338.5 35.4827 338.5 27.888C340.121 27.6747 342.041 27.504 344.26 27.376C346.479 27.248 348.719 27.184 350.98 27.184C352.559 27.184 354.073 27.2267 355.524 27.312C357.017 27.3547 358.34 27.4827 359.492 27.696C359.492 28.08 359.492 28.8693 359.492 30.064C359.535 31.216 359.535 32.496 359.492 33.904C359.492 35.2693 359.471 36.5067 359.428 37.616C360.537 35.9947 362.351 34.3093 364.868 32.56C367.385 30.768 370.308 29.2533 373.636 28.016C376.964 26.7787 380.399 26.16 383.94 26.16C390.468 26.16 395.46 27.4827 398.916 30.128C402.372 32.7307 404.74 36.656 406.02 41.904C407.3 47.1093 407.94 53.6373 407.94 61.488C407.94 64.2187 407.855 67.4187 407.684 71.088C407.556 74.7147 407.343 78.5333 407.044 82.544C406.745 86.5547 406.361 90.4373 405.892 94.192C405.039 94.2773 403.673 94.3413 401.796 94.384C399.961 94.4693 398.02 94.512 395.972 94.512C393.796 94.512 391.727 94.4693 389.764 94.384C387.801 94.3413 386.351 94.2773 385.412 94.192C385.881 91.8027 386.393 88.816 386.948 85.232C387.503 81.648 387.972 77.8293 388.356 73.776C388.74 69.68 388.932 65.776 388.932 62.064C388.932 58.48 388.633 55.3653 388.036 52.72C387.481 50.0747 386.393 48.0267 384.772 46.576C383.193 45.0827 380.847 44.336 377.732 44.336C375.172 44.336 372.719 44.784 370.372 45.68C368.025 46.576 365.892 47.6853 363.972 49.008C362.052 50.288 360.409 51.5467 359.044 52.784C359.001 59.5253 358.831 65.6267 358.532 71.088C358.233 76.5067 357.913 81.2213 357.572 85.232C357.231 89.2 356.889 92.4 356.548 94.832ZM457.481 77.552C448.777 77.552 441.865 76.3147 436.745 73.84C431.668 71.3653 428.041 68.1867 425.865 64.304C423.689 60.3787 422.601 56.2613 422.601 51.952C422.601 46.4053 424.052 41.7333 426.953 37.936C429.854 34.1387 433.801 31.28 438.793 29.36C443.785 27.3973 449.481 26.416 455.881 26.416C466.164 26.416 473.844 28.6773 478.921 33.2C484.041 37.7227 486.601 43.7173 486.601 51.184C486.601 56.9867 485.364 61.8507 482.889 65.776C480.457 69.6587 477.065 72.6027 472.713 74.608C468.361 76.5707 463.284 77.552 457.481 77.552ZM454.601 125.936C447.945 125.936 441.886 125.296 436.425 124.016C431.006 122.779 426.676 120.56 423.433 117.36C420.233 114.203 418.633 109.765 418.633 104.048C418.633 100.507 419.785 97.2213 422.089 94.192C424.393 91.2053 427.7 88.752 432.009 86.832C436.318 84.8693 441.417 83.7173 447.305 83.376C449.95 83.2053 452.745 83.0987 455.689 83.056C458.676 82.9707 462.174 82.928 466.185 82.928C472.969 82.928 478.516 84.4427 482.825 87.472C487.177 90.4587 489.353 95.2587 489.353 101.872C489.353 107.675 487.817 112.347 484.745 115.888C481.716 119.429 477.577 121.989 472.329 123.568C467.124 125.147 461.214 125.936 454.601 125.936ZM455.177 113.52C458.078 113.52 460.66 113.221 462.921 112.624C465.182 112.027 466.974 111.088 468.297 109.808C469.62 108.528 470.281 106.843 470.281 104.752C470.281 102.917 469.748 101.467 468.681 100.4C467.657 99.376 466.334 98.6507 464.713 98.224C463.134 97.7973 461.492 97.584 459.785 97.584C458.633 97.584 457.31 97.584 455.817 97.584C454.324 97.584 452.852 97.584 451.401 97.584C449.993 97.584 448.82 97.584 447.881 97.584C446.302 97.584 444.83 97.776 443.465 98.16C442.142 98.5867 441.054 99.3333 440.201 100.4C439.39 101.467 438.985 102.981 438.985 104.944C438.985 106.907 439.689 108.528 441.097 109.808C442.505 111.088 444.425 112.027 446.857 112.624C449.289 113.221 452.062 113.52 455.177 113.52ZM439.305 89.968C433.502 88.7733 429.449 87.1307 427.145 85.04C424.884 82.9493 423.753 80.624 423.753 78.064C423.753 76.0587 424.201 74.3307 425.097 72.88C425.993 71.3867 427.06 70.192 428.297 69.296C429.577 68.3573 430.793 67.7387 431.945 67.44L444.617 73.84C442.996 74.3947 441.78 75.12 440.969 76.016C440.201 76.8693 439.817 77.744 439.817 78.64C439.817 79.8347 440.457 80.9227 441.737 81.904C443.06 82.8853 444.916 83.376 447.305 83.376L439.305 89.968ZM455.753 62.32C458.484 62.32 460.788 61.8933 462.665 61.04C464.542 60.1867 465.95 58.928 466.889 57.264C467.87 55.6 468.361 53.5733 468.361 51.184C468.361 49.2213 467.806 47.4933 466.697 46C465.63 44.5067 464.201 43.3547 462.409 42.544C460.66 41.6907 458.718 41.264 456.585 41.264C453.086 41.264 449.95 42.0107 447.177 43.504C444.446 44.9973 443.081 47.6427 443.081 51.44C443.081 54.9813 444.276 57.6907 446.665 59.568C449.097 61.4027 452.126 62.32 455.753 62.32ZM481.225 42.544L469.961 33.072C470.473 31.408 471.433 29.6373 472.841 27.76C474.292 25.84 475.934 24.0693 477.769 22.448C479.646 20.784 481.46 19.5253 483.209 18.672C483.806 19.568 484.66 20.8053 485.769 22.384C486.878 23.9627 488.03 25.5627 489.225 27.184C490.42 28.8053 491.444 30.1493 492.297 31.216C491.316 31.6853 490.249 32.3253 489.097 33.136C487.988 33.904 486.9 34.8 485.833 35.824C484.766 36.8053 483.828 37.872 483.017 39.024C482.206 40.176 481.609 41.3493 481.225 42.544ZM540.534 92.528C540.534 90.864 540.555 88.1973 540.598 84.528C540.641 80.8587 540.705 76.6133 540.79 71.792C540.918 66.928 541.046 61.808 541.174 56.432C541.302 51.056 541.409 45.7867 541.494 40.624C541.622 35.4613 541.729 30.7467 541.814 26.48C541.942 22.2133 542.027 18.7573 542.07 16.112C542.113 13.4667 542.134 12.016 542.134 11.76C544.523 11.5893 547.339 11.3973 550.582 11.184C553.867 10.9707 557.302 10.8 560.886 10.672C564.513 10.5013 568.033 10.416 571.446 10.416C576.438 10.416 580.854 11.056 584.694 12.336C588.577 13.616 591.627 15.6853 593.846 18.544C596.065 21.4027 597.174 25.1573 597.174 29.808C597.174 33.2213 596.385 36.208 594.806 38.768C593.227 41.328 591.307 43.3973 589.046 44.976C586.785 46.5547 584.609 47.5573 582.518 47.984C582.731 47.984 582.945 47.984 583.158 47.984C583.414 47.984 583.734 47.984 584.118 47.984C587.915 48.24 591.243 49.1787 594.102 50.8C597.003 52.3787 599.265 54.512 600.886 57.2C602.507 59.888 603.318 62.9813 603.318 66.48C603.318 72.1973 602.209 76.848 599.99 80.432C597.771 83.9733 594.614 86.7253 590.518 88.688C586.422 90.6507 581.537 91.9947 575.862 92.72C570.23 93.4453 564.022 93.808 557.238 93.808C554.038 93.808 550.966 93.7013 548.022 93.488C545.078 93.2747 542.582 92.9547 540.534 92.528ZM561.59 74.8C561.974 74.8427 562.443 74.864 562.998 74.864C563.553 74.864 564.171 74.864 564.854 74.864C567.158 74.864 569.462 74.7147 571.766 74.416C574.07 74.1173 576.161 73.6267 578.038 72.944C579.958 72.2613 581.494 71.3227 582.646 70.128C583.798 68.8907 584.374 67.3547 584.374 65.52C584.374 64.24 584.097 63.1093 583.542 62.128C583.03 61.1467 582.219 60.336 581.11 59.696C580.001 59.0133 578.55 58.5227 576.758 58.224C575.009 57.8827 572.897 57.712 570.422 57.712C569.697 57.712 568.801 57.7333 567.734 57.776C566.667 57.776 565.558 57.8187 564.406 57.904C563.297 57.9467 562.251 58.032 561.27 58.16L561.59 74.8ZM561.014 41.968C563.275 41.968 565.089 41.904 566.454 41.776C567.819 41.648 569.014 41.4133 570.038 41.072C572.513 40.688 574.774 39.792 576.822 38.384C578.913 36.9333 579.958 34.992 579.958 32.56C579.958 30.0427 579.083 28.1653 577.334 26.928C575.585 25.648 573.345 25.008 570.614 25.008C569.035 25.008 567.307 25.1147 565.43 25.328C563.595 25.4987 561.995 25.6907 560.63 25.904L561.014 41.968ZM675.947 82.544C674.752 83.9947 673.259 85.424 671.467 86.832C669.675 88.24 667.52 89.52 665.003 90.672C662.528 91.7813 659.691 92.6773 656.491 93.36C653.291 94 649.707 94.32 645.739 94.32C639.296 94.32 633.579 93.104 628.587 90.672C623.595 88.1973 619.691 84.5493 616.875 79.728C614.102 74.864 612.715 68.8267 612.715 61.616C612.715 54.4053 614.166 48.1333 617.067 42.8C619.968 37.424 624.022 33.264 629.227 30.32C634.432 27.3333 640.512 25.84 647.467 25.84C656.256 25.84 663.168 28.2933 668.203 33.2C673.28 38.064 675.926 44.8053 676.139 53.424C676.182 55.0027 676.16 56.432 676.075 57.712C675.99 58.992 675.819 60.3573 675.563 61.808C674.923 61.7653 673.558 61.7227 671.467 61.68C669.376 61.6373 667.008 61.5947 664.363 61.552C661.76 61.4667 659.286 61.4027 656.939 61.36C654.635 61.3173 652.928 61.296 651.819 61.296C648.107 61.296 644.502 61.4667 641.003 61.808C637.547 62.1493 634.646 62.512 632.299 62.896C632.299 63.664 632.342 64.432 632.427 65.2C632.555 65.9253 632.726 66.6293 632.939 67.312C633.494 69.0613 634.454 70.5547 635.819 71.792C637.227 73.0293 638.891 73.9893 640.811 74.672C642.774 75.312 644.843 75.632 647.019 75.632C648.982 75.632 650.774 75.3973 652.395 74.928C654.059 74.416 655.574 73.7547 656.939 72.944C658.304 72.1333 659.542 71.2587 660.651 70.32C661.803 69.3387 662.87 68.3787 663.851 67.44C664.107 67.6533 664.768 68.2933 665.835 69.36C666.902 70.384 668.096 71.664 669.419 73.2C670.742 74.6933 672 76.272 673.195 77.936C674.39 79.6 675.307 81.136 675.947 82.544ZM633.003 50.928C634.923 50.6293 637.291 50.352 640.107 50.096C642.923 49.84 646.187 49.712 649.899 49.712C651.904 49.712 653.675 49.7333 655.211 49.776C656.79 49.8187 657.899 49.8613 658.539 49.904C658.539 49.008 658.411 48.0267 658.155 46.96C657.814 45.5093 657.131 44.1227 656.107 42.8C655.126 41.4773 653.846 40.4107 652.267 39.6C650.731 38.7893 648.875 38.384 646.699 38.384C643.968 38.384 641.579 38.9813 639.531 40.176C637.526 41.3707 635.968 42.928 634.859 44.848C633.75 46.768 633.131 48.7947 633.003 50.928ZM721.658 90.992C720.463 92.272 718.223 93.5093 714.938 94.704C711.695 95.9413 708.069 96.56 704.058 96.56C698.853 96.56 694.885 95.344 692.154 92.912C689.466 90.48 687.653 87.0453 686.714 82.608C685.775 78.128 685.306 72.9227 685.306 66.992C685.306 62.3413 685.349 57.6693 685.434 52.976C685.519 48.2827 685.626 43.632 685.754 39.024C685.925 34.416 686.095 29.9573 686.266 25.648C686.479 21.296 686.671 17.1787 686.842 13.296C687.055 9.37066 687.269 5.78666 687.482 2.544C690.511 2.33067 693.306 2.224 695.866 2.224C697.53 2.224 699.173 2.26667 700.794 2.352C702.415 2.43733 704.207 2.56533 706.17 2.73599C705.957 6.44799 705.701 10.5653 705.402 15.088C705.146 19.568 704.89 24.1547 704.634 28.848C704.421 33.5413 704.207 38.0853 703.994 42.48C703.781 46.8747 703.61 50.864 703.482 54.448C703.397 57.9893 703.354 60.8267 703.354 62.96C703.354 65.7333 703.461 68.3147 703.674 70.704C703.93 73.0507 704.485 74.9707 705.338 76.464C706.191 77.9147 707.471 78.64 709.178 78.64C710.629 78.64 711.802 78.32 712.698 77.68C713.637 76.9973 714.405 76.144 715.002 75.12C715.301 75.632 715.77 76.656 716.41 78.192C717.05 79.6853 717.754 81.3493 718.522 83.184C719.29 85.0187 719.973 86.6827 720.57 88.176C721.167 89.6267 721.53 90.5653 721.658 90.992ZM762.908 90.992C761.713 92.272 759.473 93.5093 756.188 94.704C752.945 95.9413 749.319 96.56 745.308 96.56C740.103 96.56 736.135 95.344 733.404 92.912C730.716 90.48 728.903 87.0453 727.964 82.608C727.025 78.128 726.556 72.9227 726.556 66.992C726.556 62.3413 726.599 57.6693 726.684 52.976C726.769 48.2827 726.876 43.632 727.004 39.024C727.175 34.416 727.345 29.9573 727.516 25.648C727.729 21.296 727.921 17.1787 728.092 13.296C728.305 9.37066 728.519 5.78666 728.732 2.544C731.761 2.33067 734.556 2.224 737.116 2.224C738.78 2.224 740.423 2.26667 742.044 2.352C743.665 2.43733 745.457 2.56533 747.42 2.73599C747.207 6.44799 746.951 10.5653 746.652 15.088C746.396 19.568 746.14 24.1547 745.884 28.848C745.671 33.5413 745.457 38.0853 745.244 42.48C745.031 46.8747 744.86 50.864 744.732 54.448C744.647 57.9893 744.604 60.8267 744.604 62.96C744.604 65.7333 744.711 68.3147 744.924 70.704C745.18 73.0507 745.735 74.9707 746.588 76.464C747.441 77.9147 748.721 78.64 750.428 78.64C751.879 78.64 753.052 78.32 753.948 77.68C754.887 76.9973 755.655 76.144 756.252 75.12C756.551 75.632 757.02 76.656 757.66 78.192C758.3 79.6853 759.004 81.3493 759.772 83.184C760.54 85.0187 761.223 86.6827 761.82 88.176C762.417 89.6267 762.78 90.5653 762.908 90.992ZM794.302 99.056C789.31 99.056 784.723 98.4373 780.542 97.2C776.403 96.0053 772.883 94.5973 769.982 92.976C767.123 91.312 765.054 89.8187 763.774 88.496C764.03 87.6853 764.521 86.512 765.246 84.976C766.014 83.3973 766.91 81.6907 767.934 79.856C768.958 78.0213 769.982 76.3147 771.006 74.736C772.03 73.1573 772.947 71.984 773.758 71.216C775.806 72.9653 778.025 74.6933 780.414 76.4C782.803 78.064 785.257 79.4293 787.774 80.496C790.291 81.5627 792.638 82.096 794.814 82.096C796.521 82.096 798.057 81.8827 799.422 81.456C800.787 80.9867 801.854 80.304 802.622 79.408C803.433 78.512 803.838 77.4027 803.838 76.08C803.838 74.544 803.091 73.072 801.598 71.664C800.147 70.2133 798.27 68.848 795.966 67.568C793.662 66.288 791.251 65.136 788.734 64.112C785.278 62.704 782.057 61.0613 779.07 59.184C776.083 57.264 773.673 54.9173 771.838 52.144C770.003 49.328 769.086 45.8293 769.086 41.648C769.086 37.3813 770.345 33.7973 772.862 30.896C775.379 27.9947 778.665 25.7973 782.718 24.304C786.814 22.8107 791.187 22.064 795.838 22.064C800.233 22.064 804.691 22.6827 809.214 23.92C813.737 25.1147 817.427 26.8427 820.286 29.104C820.03 29.9147 819.475 31.152 818.622 32.816C817.811 34.48 816.809 36.272 815.614 38.192C814.462 40.0693 813.225 41.7973 811.902 43.376C810.153 41.8827 807.955 40.4533 805.31 39.088C802.665 37.7227 799.891 37.04 796.99 37.04C795.539 37.04 794.089 37.1893 792.638 37.488C791.23 37.7867 790.057 38.32 789.118 39.088C788.222 39.856 787.774 40.9013 787.774 42.224C787.774 43.504 788.265 44.656 789.246 45.68C790.227 46.6613 791.657 47.6213 793.534 48.56C795.454 49.4987 797.694 50.48 800.254 51.504C802.814 52.528 805.417 53.744 808.062 55.152C810.707 56.5173 813.139 58.16 815.358 60.08C817.619 62 819.433 64.24 820.798 66.8C822.163 69.3173 822.846 72.2187 822.846 75.504C822.846 80.752 821.545 85.1253 818.942 88.624C816.339 92.1227 812.862 94.7253 808.51 96.432C804.201 98.1813 799.465 99.056 794.302 99.056Z" fill="white"/>
</g>
<defs>
<filter id="filter0_d_1_50" x="0.783997" y="0.94397" width="839.062" height="132.992" filterUnits="userSpaceOnUse" color-interpolation-filters="sRGB">
<feFlood flood-opacity="0" result="BackgroundImageFix"/>
<feColorMatrix in="SourceAlpha" type="matrix" values="0 0 0 0 0 0 0 0 0 0 0 0 0 0 0 0 0 0 127 0" result="hardAlpha"/>
<feOffset dx="13" dy="4"/>
<feGaussianBlur stdDeviation="2"/>
<feComposite in2="hardAlpha" operator="out"/>
<feColorMatrix type="matrix" values="0 0 0 0 0.045625 0 0 0 0 0.0671702 0 0 0 0 0.304167 0 0 0 0.25 0"/>
<feBlend mode="normal" in2="BackgroundImageFix" result="effect1_dropShadow_1_50"/>
<feBlend mode="normal" in="SourceGraphic" in2="effect1_dropShadow_1_50" result="shape"/>
</filter>
</defs>
</svg>
